<svg width="40" height="40" viewBox="0 0 40 40" fill="none" xmlns="http://www.w3.org/2000/svg">
<g clip-path="url(#clip0_959_99)">
<path fill-rule="evenodd" clip-rule="evenodd" d="M31.6668 10C32.9929 10 34.2647 10.5268 35.2024 11.4645C36.14 12.4021 36.6668 13.6739 36.6668 15V25C36.6668 26.3261 36.14 27.5979 35.2024 28.5355C34.2647 29.4732 32.9929 30 31.6668 30H8.3335C7.00741 30 5.73564 29.4732 4.79796 28.5355C3.86028 27.5979 3.3335 26.3261 3.3335 25V15C3.3335 13.6739 3.86028 12.4021 4.79796 11.4645C5.73564 10.5268 7.00741 10 8.3335 10H31.6668ZM31.6668 23.3333H8.3335C7.92527 23.3334 7.53127 23.4833 7.22621 23.7545C6.92115 24.0258 6.72626 24.3996 6.6785 24.805L6.66683 25V26.6667H33.3335V25C33.3334 24.5918 33.1836 24.1978 32.9123 23.8927C32.641 23.5877 32.2673 23.3928 31.8618 23.345L31.6668 23.3333ZM30.0002 15C29.5581 15 29.1342 15.1756 28.8217 15.4882C28.5091 15.8007 28.3335 16.2246 28.3335 16.6667C28.3335 17.1087 28.5091 17.5326 28.8217 17.8452C29.1342 18.1577 29.5581 18.3333 30.0002 18.3333C30.4422 18.3333 30.8661 18.1577 31.1787 17.8452C31.4912 17.5326 31.6668 17.1087 31.6668 16.6667C31.6668 16.2246 31.4912 15.8007 31.1787 15.4882C30.8661 15.1756 30.4422 15 30.0002 15Z" fill="black"/>
</g>
<defs>
<clipPath id="clip0_959_99">
<rect width="40" height="40" fill="white"/>
</clipPath>
</defs>
</svg>
